<?xml version="1.0" encoding="UTF-8"?>
<svg id="Layer_2" data-name="Layer 2" xmlns="http://www.w3.org/2000/svg" viewBox="0 0 184.86 278.96">
  <g id="Layer_1-2" data-name="Layer 1">
    <g>
      <path d="M168.4,95.66c0-41.73-34.89-74.33-75.76-74.5-39.91-.16-76.04,31.38-76.07,72.69l-.06,92.64c-.03,41.62,35.83,73.63,76.14,73.49,40.7-.14,75.76-32.67,75.76-74.79v-89.53ZM82.55,255.88c-25.11-2.92-46.81-19.73-57.14-43.18,13.8-9.57,31.16-8.63,43.66.58,12.74,9.38,18.64,25.48,13.48,42.59ZM112.66,253.69c-8.44,2.92-17.3,3.48-26.89,2.66,5.14-16.84-.44-34.22-13.5-44.67-13.51-10.82-32.38-11.96-47.9-2.35-3.67-8.2-5.02-17.09-4.8-26.43,22.49-10.25,48.34-6.95,67.73,7.9,18.88,14.46,28.99,38.18,25.36,62.89ZM116.18,252.59c2.89-25.37-7.4-49.25-26.73-64.23-20.01-15.5-46.09-18.5-69.86-9.23l-.08-30.43c59.64-17.22,119.79,24.13,125.68,85.63-8.35,8.11-16.97,14.44-29,18.27ZM109.99,163.24c-17.01-12.66-35.76-20.19-56.94-21.43-4.95-18.76,3.94-37.47,20.36-46.23,16.67-8.88,36.86-4.99,49.4,8.98,12.52,13.94,14.11,35.75,2.41,50.89-4.55,2.77-9.75,3.5-15.23,7.79ZM165.15,153.98l.11,24.05c-12.31-1.29-24.14-.32-35.75,5.46-5.15-6.43-10.45-12.12-16.95-18.14,15.86-9.67,33.99-13.4,52.6-11.37ZM148.31,230.44c-1.84-7.71-2.92-14.52-5.63-22.26,5.92-3.24,12.56-3.58,19.1-2.23-2.8,9.03-6.86,16.93-13.47,24.49ZM163.01,202.47c-7.68-.59-14.46-.53-21.74,2.36-2.94-6.79-6.08-12.39-9.89-18.5,10.35-5.24,22.04-6.83,33.68-4.76.72,7.08-.39,13.18-2.05,20.9ZM154.04,116.22c1.63,1.05,8.27-2.42,11.14-2.01.18,5.52.34,10.18-.03,15.48-3.69.98-12.93-.49-14.7.92-.58.46-.77,2.19.46,2.23l14.28.5c.19,5.59.36,10.68-.12,15.77-5.15-.34-9.41-3.09-14.31-2.92-.87.03-.95,2.15-.13,2.4.64.2,1.38.64,2.46,1.6-7.25-.03-14.14,1.6-22.29,3.28,3.63-7.04,5.55-14.23,5.54-21.79,4.37,2.18,9.32,2.58,13.64-.22-4.79-2.47-9.35-2.35-13.64.13-.01-3.4-.41-6.86-1.23-10.43,4.87-.97,10.5-.63,15.01-4.87-5.81-1.86-10.81,1.45-15.34,3.03l-3.7-8.91c4.75-2.26,10.47-3.7,13.67-8.88-5.75.05-10.21,3.42-14.36,7.36l-6.02-7.76c15.94-12.05,8.87-12.79,8.16-11.76-1.14,1.65-8.92,7.39-9.12,10.85-6.33-5.75-12.58-9.04-19.57-11.33,3.29.24,6.19-19.21,6.22-19.53.06-.6-1.89-1.21-2.32-.07-2.47,6.5-3.72,13.05-5.16,19.61-11.01-2.37-21.09-1.17-30.84,3.86l-6.17-10.84c-.37-.65-7.68-5.54,2.11,10.02.77,1.22,2.7.34,3.55.86-3.45,2.39-6.48,4.49-9.49,7.27-1.75-2.95-3.79-7.31-8.55-7.44.67,4.55,4.61,6.5,7.51,8.47-2.69,2.85-4.63,5.67-6.39,8.69-.8-1.51-.93-2.68-2.19-3.39l-7.66-4.3c-.86-.48-1.72-.49-2.31-.15-3.34,1.95,9.05,8.2,11.85,7.89-4.68,9.29-7.04,19.52-4.48,31.44-10.08.5-19.53,1.09-29.48,3.87-.98-3.93-.64-7.8-.22-11.85,4.19-.83,15.74.97,17.2-1.27,2.36-3.63-14.54-1.31-17.21-2.18-.58-5.14-.38-10.33-.1-15.67l10.09,2.06c.64.13,1.06-.87,1.18-1.23.16-.47-.13-1.33-.9-1.56l-10.52-3.15c.08-6.34-.52-12.26.39-18.26,1.49.46,2.38.68,3.1,1.17.58.39,2.18-.46,1.86-1.7-.46-1.83-2.97-2.01-4.64-3.37.44-7.14,2.64-13.97,5.64-20.39l8.79,8.13c.46.43,1.28.37,1.6.28.47-.14,1.28-1.31.61-2.01l-9.39-9.89c3.24-6.83,7.81-12.84,13.25-18.28,3.13,2.91,5.51,12.29,8.64,10.6,2.38-1.29-4.9-9.61-5.81-13.19,5.76-5.55,12.19-9.67,19.75-12.89,2.1,3.55,2.23,10.49,4.28,12.32.91.82,2.32-.21,2.04-1.42l-2.85-12.2c7.69-3.08,15.79-4.8,23.87-4.61l.2,12.01c.02,1.24.58,2.26,1.7,2.26,2.74,0,.78-11.02,1.69-14.27,8.24-.19,15.88,1.61,23.82,4.42l-3.57,14.66c-1.76,7.2-4.79,14.16-5.81,22.15.04,1.12,2.51,1.38,2.84.21l9.96-35.58c7.87,3.37,14.17,7.53,19.86,12.98l-6.78,11.91c-.65,1.15-.51,2.14.39,2.8,2.32,1.69,6.32-9.72,9.09-12.14,5.59,5.35,9.61,11.15,13.26,17.87-.94,3.08-8.82,7.26-6.93,9.67.32.4,1.2.9,1.95.21l6.55-6.01c3.24,6.57,4.98,13.13,5.75,20.3-3.55,1.63-6.16,3.79-9.26,5.71-1.26.78-13.74,6.05-9.65,7.82,2.49,1.08,14.34-8.32,19.25-9.78.49,6.28.62,12.3.06,18.56-1.92,1.44-15.97,2.66-10.99,5.85Z"/>
      <path d="M141.92,17.63c-.98-.63-2.17.05-2.38.58-.3.74-.23,1.43.92,2.19,24.25,16.02,41.06,42.35,41.1,72.18l.12,95.04c.02,17.14-5.96,32.73-14.74,46.99-.63,1.03.13,1.96.62,2.14.48.18,1.64.2,2.4-1.03,8.99-14.45,14.78-30.02,14.8-47.1l.09-97.94c-1.67-30.15-17.72-56.84-42.94-73.05Z"/>
      <path d="M3.33,91.6c.03-28.54,16.11-53.53,38.73-69.75.62-1.13-.92-3.19-2.13-2.34C16.6,36,.17,62.31.13,91.61L0,188.58c-.03,22.91,15.14,53.28,18.01,47.37.61-1.25-14.82-22.13-14.79-46.4l.11-97.95Z"/>
      <path d="M154.72,240.97c-2.5,1.17-4.19,3.14-5.63,5.4,2.56,2.87,4.87,5.11,8.08,7.6,1.77-1.72.33-3.12.29-5.38,2.31-.69,4.05.69,5.93-1.4-4.75-1.38-3.29-8.73-8.67-6.22Z"/>
      <path d="M77.08,272.89l-4.55-8c-2.43,3.61-3.21,8.22-2.01,12.22,3.04-1.69,1.54-4.2,3.18-5.57.92,1.75,1.17,4.68,3.05,4.41,1.77-.26,2.37-2.69,3.94-2.81-.14,2.61-1.36,4.67,1.68,5.71.89-3.96,2.52-7.79,1.24-11.82-3.46,1.23-4.11,3.83-6.54,5.86Z"/>
      <path d="M108.2,272.87c-2.86-1.8-3.4-5.07-7.25-5.66-.42,4.16.57,7.98,1.78,11.75,3.26-1.41,1.17-3.61,1.77-6,1.37.73,2.64,3.59,4.35,2.82,1.73-.78,1.33-3.37,3-3.86.77,2.24.37,4.94,3.29,4.6.06-3.97-.72-7.52-1.86-11.44-3.64,1.42-3.29,4.92-5.07,7.79Z"/>
      <path d="M49.35,265.52c-1.22.39-2.88-.3-3.11-1.97-.37-2.69,3.4-5.07,2.48-7.36-.79-3.72-7.06,5.39-4.7,9.05,1.19,1.84,3.9,3.31,6.21,2.88,3.22-.59,6.12-7.49,5.72-8.05-2.61-3.64-3.54,4.47-6.6,5.44Z"/>
      <path d="M137.62,260.53c-1.96-.17-4.71,3.03-5.13.16.55-1.86,4.21-1.51,4.55-4.16-2.55-.43-6.91,1.72-7.75,3.88.47,3.3,3.01,5.73,4.15,9.07,2.98-1.26,6.21-1.89,8.15-5.28l-6.5,1.52c-2.93-1.32,6.29-4.85,2.53-5.18Z"/>
      <path d="M31.43,241.46c-1.44-1.42-4.5-1.92-5.44.14-1.22,2.66,1.43,4.82,1.59,7.48-3.11.1-2.93-3.15-5.45-4.31-1.3,2.6,1.03,4.36,2.12,5.6,1.24,1.42,4.64,2.18,5.68.15,1.4-2.73-1.52-4.84-1.82-7.59,2.7-.5,3.02,2.28,5.15,3.92,1.81-2.6-.76-4.33-1.83-5.39Z"/>
      <path d="M47.02,21.69c1.72,1.1,5.84-1.84,6.74-3.56-1.88-1.58-3.85,1.75-5.47.89-1.6-.85.46-2.45,1.77-2.84,1.67-1.28.2-2.37-1.47-1.51-.87.45-1.91.96-2.43.55-2.39-1.91,4.47-2.66,3.28-5.09-2.36.32-5.83,1.57-6.94,3.75.7,2.27,2.28,6.12,4.52,7.81Z"/>
      <path d="M109.74,12.45c2.11.28,4.49-1.75,5.03-4.87.61-3.54-1.6-5.98-4.2-5.96-2.82.02-4.48,1.92-4.86,4.96-.37,2.98,1.04,5.46,4.03,5.87ZM108.19,7.12c.18-1.21.82-3.93,2.89-3.17,1.9.7,1.46,5.44-.68,5.95-2.33.56-2.34-1.89-2.2-2.78Z"/>
      <path d="M63.4,11.89c-.09,2.4-2.99,1.96-5.03,2.94,1.22,2.43,3.77,1.09,5.11.62,1.77-.62,3.6-2.89,2.02-4.96-1.66-2.17-5.17.07-6.59-2.12,1.43-1.96,3.65-.79,4.57-2.83-1.82-1.65-3.73-.36-5.37.48-1.07.55-2.37,2.3-1.56,3.97,1.08,2.23,4.08,1.4,6.85,1.89Z"/>
      <path d="M91.78,10.09c3.21.88,5.82,1.04,8.6-.11l-3.91-2.02c1.67-1.58,3.66-2.93,3.35-5.27-.26-1.97-2.32-2.81-4-2.67-1.29.1-4.09.3-3.19,2.55,1.79-.18,4.8-.93,4.4.97-.59,2.79-4.01,3.17-5.26,6.56Z"/>
      <path d="M123.6,13.19c2.51-1.14,3.95-2.07,4.73-4.03.54-1.37-1.22-3.32-3.15-3.83-1.17-.31-3.29-1.03-3.81,1.63,2.03.14,5.14.31,3.97,2.25-1.37,2.3-4.77,1.76-6.84,4.53,2.35,1.68,4.67,2.63,7.64,2.77-.19-2.74-1.93-2.14-2.53-3.33Z"/>
      <path d="M72.73,4.75c1.28,2.78.93,5.77,1.81,6.84.45.54,1.65.56,2.04-.39.51-1.22-1.71-5.67-.51-7.4.43-.62,1.79-.45,2.21-2.33-3.34-.23-6.33.3-9.17,1.71,1.63,1.63,3.22.71,3.61,1.57Z"/>
      <path d="M134.04,20.1c1.92-2.83,3.83-5.45,4.06-8.5.1-1.34-2.58-2.2-3.87-1.74,1.79,5.09-1.06,5.79-1.92,9.23-.11.45,1.24,1.73,1.73,1Z"/>
      <path d="M92.55,70.45c.55-.06,1.54-.86,1.53-2.4l-.19-26.34c0-.86-.86-1.79-1.34-1.77-.48.03-1.62.82-1.62,1.74l-.1,26.9c0,1.16,1.07,1.93,1.71,1.86Z"/>
      <path d="M76.34,65.51c-.35-1.29-1.6-1.79-2.26-1.39-.73.45-1.12,1.26-.82,2.34l6.07,21.81c.25.91,2.39.05,2.44-.55.03-.38.27-.92-.06-2.16l-5.37-20.05Z"/>
      <path d="M52.52,59.32c-.64-1.1-1.97-1.3-2.64-.72-1.57,1.37,7.86,16.23,9.74,19.34.61,1.01,1.98.91,2.55.39.41-.38.69-1.09,0-2.31l-9.65-16.7Z"/>
      <path d="M39.79,76.86c-.86-.85-2.21-.42-2.51.25-.84,1.88,10.35,12.01,12.9,14.39.86.8,2.1.04,2.34-.7.16-.5.1-1.19-.93-2.21l-11.81-11.72Z"/>
      <path d="M133.09,61.08c-.64-.53-1.63-.22-2.16.7l-7.64,13.2c-.53.91.05,1.86.62,2.29,1.92,1.44,8.19-11.28,9.68-14,.58-1.07.07-1.72-.51-2.2Z"/>
      <path d="M73.67,60.75c.54-.27,1.09-1.08.8-2.14l-3.49-12.87c-.39-1.42-1.37-2.12-2.03-1.78-1.01.53-1.25,1.49-.95,2.6l3.54,13.09c.34,1.27,1.65,1.34,2.13,1.1Z"/>
      <path d="M31.95,116.04c.12.43.62,1.19,1.47,1.41l14.13,3.77c2.11-.44,2.1-2.52.95-2.84l-14.39-3.97c-1.27-.35-2.39.79-2.15,1.63Z"/>
      <path d="M40.12,100.09l-1.35-1.26-10.02-5.78c-1.06-.61-2.14-.56-2.59.18-1.49,2.44,10.64,8.25,13.01,9.13.88.33,1.35-1.87.94-2.26Z"/>
      <path d="M148.47,74.74c-.36-.18-1.04-.28-1.7.37l-10.11,10.05c-.97.97-.81,2.37.29,2.87.48.22,1.22.12,2.21-.89l9.71-9.83c.88-.89.28-2.24-.4-2.58Z"/>
      <path d="M120.77,79.29l-6.32,11.05c-.7,1.22-.32,1.91.23,2.33.91.7,2.04.11,2.86-1.33l5.87-10.4c.52-.93.33-1.95-.14-2.31-.72-.57-1.95-.31-2.51.66Z"/>
      <path d="M92.56,72.67c-2.61-.51-2.67,14.23.03,14.01,2.24-.18,2.24-13.56-.03-14.01Z"/>
      <path d="M136.96,142.02c-6.22,2.69,11,7.5,11.01,4.1.01-2.1-8.08-3.06-11.01-4.1Z"/>
      <path d="M37.62,131.68c3.32,2.02,7.5,2.69,10.43-.28-4.16-2.55-7.37-2.02-10.43.28Z"/>
      <path d="M88.61,97.06c.03.47.56,1.43,1.57,1.39,23.67-1.12,28.6,19.73,30.23,11.25-6.26-12.14-32.21-18.11-31.81-12.63Z"/>
      <path d="M123.22,117.62c-1.92-.55.81,19.82,3.7,11.86-.74-3.97.69-8.45-3.7-11.86Z"/>
    </g>
  </g>
</svg>